Coordinates
version=1
nRows=16
nColumns=28
inDegrees=yes

Units are S.I. units (second, meters, Newtons, ...)
Angles are in degrees.

endheader
time	pelvis_tilt	pelvis_list	pelvis_rotation	pelvis_tx	pelvis_ty	pelvis_tz	hip_flexion_r	hip_adduction_r	hip_rotation_r	knee_angle_r	ankle_angle_r	subtalar_angle_r	mtp_angle_r	hip_flexion_l	hip_adduction_l	hip_rotation_l	knee_angle_l	socket_flexion	socket_adduction	socket_rotation	socket_tx	socket_ty	socket_tz	foot_flex	lumbar_extension	lumbar_bending	lumbar_rotation
      0.00000000	      6.47037930	    -12.75493033	    -15.91057494	     -0.75544777	      1.00925658	      0.35184244	    -28.59098656	      7.55297766	      2.75656871	     -9.86206716	     -2.49525374	      6.51430460	     40.20922258	     16.00241506	    -16.58555278	      5.21290186	     -6.12720202	      0.00000000	      0.00000000	      0.00000000	      0.00000000	      0.00000000	      0.00000000	      0.48428913	    -22.14341344	      8.02827222	     24.84238004
      0.00416667	      6.42570091	    -12.76580227	    -15.90234089	     -0.75046579	      1.00866429	      0.35141846	    -28.65577087	      7.48963598	      2.88070961	    -10.12538086	     -2.63106941	      6.50524555	     40.23372316	     15.82066230	    -16.50524149	      5.35646204	     -6.14171589	      0.00000000	      0.00000000	      0.00000000	      0.00000000	      0.00000000	      0.00000000	      0.20045173	    -22.07741676	      8.02964753	     24.91470047
      0.00833333	      6.36524424	    -12.74005423	    -15.89626255	     -0.74518984	      1.00802231	      0.35100592	    -28.69617982	      7.39199087	      2.98637439	    -10.42120319	     -2.76840814	      6.45473351	     40.24227701	     15.63758760	    -16.38353641	      5.48843019	     -6.14600061	      0.00000000	      0.00000000	      0.00000000	      0.00000000	      0.00000000	      0.00000000	     -0.04684509	    -21.97945148	      8.00805131	     24.93710185
      0.01250000	      6.30098852	    -12.70208827	    -15.89937233	     -0.73972901	      1.00742014	      0.35057475	    -28.71306469	      7.27648192	      3.06579194	    -10.74328030	     -2.94185394	      6.35937394	     40.24443156	     15.45038742	    -16.24812366	      5.59540702	     -6.15569822	      0.00000000	      0.00000000	      0.00000000	      0.00000000	      0.00000000	      0.00000000	     -0.33804747	    -21.86334989	      7.96971334	     24.94642480
      0.01666667	      6.23364926	    -12.63507548	    -15.90172686	     -0.73409092	      1.00682485	      0.35016715	    -28.71518519	      7.13820912	      3.14037757	    -11.08651972	     -3.15100648	      6.21592452	     40.24354559	     15.26364168	    -16.08348569	      5.68713623	     -6.16648210	      0.00000000	      0.00000000	      0.00000000	      0.00000000	      0.00000000	      0.00000000	     -0.63204293	    -21.73192839	      7.89912558	     24.94317356
      0.02083333	      6.12292029	    -12.43646061	    -15.94710027	     -0.72805820	      1.00624262	      0.34991660	    -28.68198263	      6.88143924	      3.23784474	    -11.36901138	     -3.61197805	      5.46925755	     40.43148381	     15.09129917	    -15.79718594	      5.59750438	     -6.14430982	      0.00000000	      0.00000000	      0.00000000	      0.00000000	      0.00000000	      0.00000000	     -0.91273436	    -21.45795142	      7.68676794	     24.95180983
      0.02500000	      6.06436751	    -12.39198066	    -15.91495908	     -0.72226813	      1.00571899	      0.34936591	    -28.68587867	      6.78050959	      3.38557217	    -11.73879585	     -3.78941353	      5.37355987	     40.44417058	     14.91771471	    -15.63503695	      5.76063969	     -6.20025771	      0.00000000	      0.00000000	      0.00000000	      0.00000000	      0.00000000	      0.00000000	     -1.15503560	    -21.34796872	      7.64298122	     24.92518231
      0.02916667	      6.00807916	    -12.37554719	    -15.85001940	     -0.71617029	      1.00523054	      0.34880598	    -28.76470119	      6.71329749	      3.49021162	    -11.98657946	     -3.87195278	      5.34656429	     40.44444592	     14.74886153	    -15.48714602	      5.83242550	     -6.31035043	      0.00000000	      0.00000000	      0.00000000	      0.00000000	      0.00000000	      0.00000000	     -1.24755914	    -21.18586802	      7.68253633	     24.91757984
      0.03333333	      5.88341516	    -12.02678914	    -15.88638858	     -0.71005819	      1.00472500	      0.34847976	    -28.50449067	      6.32635907	      3.41228043	    -12.57901155	     -4.57717405	      4.59230360	     40.45524830	     14.62372075	    -15.04472313	      5.84963470	     -6.28421404	      0.00000000	      0.00000000	      0.00000000	      0.00000000	      0.00000000	      0.00000000	     -1.66055044	    -20.91400223	      7.29571212	     24.73758175
      0.03750000	      5.83891408	    -11.93174001	    -15.80260635	     -0.70404859	      1.00436039	      0.34788089	    -28.48516234	      6.21638046	      3.59677063	    -12.98422766	     -4.79013341	      4.46813751	     40.46611833	     14.47015831	    -14.81251959	      6.01108983	     -6.39213008	      0.00000000	      0.00000000	      0.00000000	      0.00000000	      0.00000000	      0.00000000	     -1.86145537	    -20.77634746	      7.19592446	     24.68837173
      0.04166667	      5.55047841	    -11.65196690	    -15.70723886	     -0.69762765	      1.00375252	      0.34741198	    -28.19122945	      6.04528231	      3.70000300	    -13.33855130	     -5.63882476	      2.91994784	     41.10100124	     14.62318470	    -14.44076367	      6.11098818	     -6.53019207	      0.00000000	      0.00000000	      0.00000000	      0.00000000	      0.00000000	      0.00000000	     -2.10199218	    -20.28396552	      7.01203563	     24.34116831
      0.04583333	      5.52952841	    -11.48404241	    -15.63782942	     -0.69156135	      1.00354579	      0.34682495	    -28.09774521	      5.85608164	      3.81189119	    -13.87846673	     -5.97691663	      2.77164511	     41.08822789	     14.44257625	    -14.13524594	      6.23020913	     -6.62795824	      0.00000000	      0.00000000	      0.00000000	      0.00000000	      0.00000000	      0.00000000	     -2.30782558	    -20.15533189	      6.83239146	     24.27838443
      0.05000000	      5.44512677	    -11.08169485	    -15.54759301	     -0.68501511	      1.00325912	      0.34636241	    -27.89370016	      5.46052327	      3.62171127	    -14.38844295	     -6.60391683	      2.20171445	     41.15918994	     14.35321305	    -13.58906289	      6.19565674	     -6.72983504	      0.00000000	      0.00000000	      0.00000000	      0.00000000	      0.00000000	      0.00000000	     -2.48718132	    -19.79917541	      6.42169732	     24.03530032
      0.05416667	      5.33161011	    -10.75042529	    -15.36288494	     -0.67862058	      1.00297070	      0.34566206	    -27.65270030	      5.20391146	      3.51575318	    -14.92309338	     -7.24544912	      1.57779190	     41.57578575	     14.35783767	    -13.09920437	      6.36637272	     -6.89682804	      0.00000000	      0.00000000	      0.00000000	      0.00000000	      0.00000000	      0.00000000	     -2.65175799	    -19.46820382	      6.15762387	     23.68281369
      0.05833333	      5.30137388	    -10.44651868	    -15.27997915	     -0.67238745	      1.00291656	      0.34509871	    -27.42229974	      4.88760696	      3.41801083	    -15.59656705	     -7.82202814	      1.24750817	     41.60537493	     14.23187286	    -12.65500245	      6.36027013	     -7.05490072	      0.00000000	      0.00000000	      0.00000000	      0.00000000	      0.00000000	      0.00000000	     -2.78009476	    -19.27804927	      5.81439375	     23.50452741
      0.06250000	      5.26847299	    -10.07008163	    -15.13938466	     -0.66601109	      1.00288921	      0.34448641	    -27.16535311	      4.53374438	      3.25232269	    -16.27684863	     -8.46063216	      0.85291559	     41.65470123	     14.13473448	    -12.12079616	      6.37945868	     -7.22858603	      0.00000000	      0.00000000	      0.00000000	      0.00000000	      0.00000000	      0.00000000	     -2.90794909	    -19.03574761	      5.41899761	     23.24898586
